<mxfile host="app.diagrams.net" agent="Mozilla/5.0 (Windows NT 10.0; Win64; x64) AppleWebKit/537.36 (KHTML, like Gecko) Chrome/137.0.0.0 Safari/537.36" version="27.1.6">
  <diagram name="Page-1" id="t1aJVOMq1lnqlXneGtP_">
    <mxGraphModel dx="1042" dy="535" grid="0" gridSize="10" guides="1" tooltips="1" connect="1" arrows="1" fold="1" page="1" pageScale="1" pageWidth="827" pageHeight="1169" math="0" shadow="0">
      <root>
        <mxCell id="0" />
        <mxCell id="1" parent="0" />
        <mxCell id="DtnL3aP30mNSnEBjbcS9-1" value="EMPLOYEE" style="rounded=0;whiteSpace=wrap;html=1;fontSize=24;fillColor=#ffe6cc;strokeColor=#d79b00;" vertex="1" parent="1">
          <mxGeometry x="189" y="90" width="170" height="60" as="geometry" />
        </mxCell>
        <mxCell id="DtnL3aP30mNSnEBjbcS9-25" value="NAME&lt;div&gt;&lt;br&gt;&lt;/div&gt;&lt;div&gt;ID&lt;/div&gt;&lt;div&gt;&lt;br&gt;&lt;/div&gt;&lt;div&gt;DESIGNATION&lt;/div&gt;" style="rounded=1;whiteSpace=wrap;html=1;fontSize=18;fillColor=#dae8fc;strokeColor=#6c8ebf;" vertex="1" parent="1">
          <mxGeometry x="189" y="180" width="170" height="130" as="geometry" />
        </mxCell>
        <mxCell id="DtnL3aP30mNSnEBjbcS9-27" value="Data Pull&lt;div&gt;&lt;br&gt;&lt;/div&gt;&lt;div&gt;Analyse&lt;/div&gt;&lt;div&gt;&lt;br&gt;&lt;/div&gt;&lt;div&gt;Present&lt;/div&gt;" style="rounded=1;whiteSpace=wrap;html=1;fontSize=18;fillColor=#e1d5e7;strokeColor=#9673a6;" vertex="1" parent="1">
          <mxGeometry x="189" y="360" width="170" height="140" as="geometry" />
        </mxCell>
        <mxCell id="DtnL3aP30mNSnEBjbcS9-29" value="EMPLOYEE 1" style="rounded=0;whiteSpace=wrap;html=1;fontSize=24;fillColor=#d80073;fontColor=#ffffff;strokeColor=#A50040;" vertex="1" parent="1">
          <mxGeometry x="500" y="90" width="170" height="60" as="geometry" />
        </mxCell>
        <mxCell id="DtnL3aP30mNSnEBjbcS9-30" value="" style="html=1;shadow=0;dashed=0;align=center;verticalAlign=middle;shape=mxgraph.arrows2.arrow;dy=0.6;dx=40;flipH=1;notch=0;" vertex="1" parent="1">
          <mxGeometry x="375" y="105" width="110" height="30" as="geometry" />
        </mxCell>
        <mxCell id="DtnL3aP30mNSnEBjbcS9-31" value="CLASS" style="rounded=0;whiteSpace=wrap;html=1;fillColor=#ffe6cc;strokeColor=#d79b00;" vertex="1" parent="1">
          <mxGeometry x="50" y="105" width="120" height="30" as="geometry" />
        </mxCell>
        <mxCell id="DtnL3aP30mNSnEBjbcS9-32" value="ATTRIBUTES" style="rounded=0;whiteSpace=wrap;html=1;fillColor=#dae8fc;strokeColor=#6c8ebf;" vertex="1" parent="1">
          <mxGeometry x="50" y="230" width="120" height="30" as="geometry" />
        </mxCell>
        <mxCell id="DtnL3aP30mNSnEBjbcS9-33" value="FUNCTIONS" style="rounded=0;whiteSpace=wrap;html=1;fillColor=#e1d5e7;strokeColor=#9673a6;" vertex="1" parent="1">
          <mxGeometry x="50" y="415" width="120" height="30" as="geometry" />
        </mxCell>
        <mxCell id="DtnL3aP30mNSnEBjbcS9-34" value="OBJECT" style="rounded=0;whiteSpace=wrap;html=1;fillColor=#d80073;strokeColor=#A50040;fontColor=#ffffff;" vertex="1" parent="1">
          <mxGeometry x="525" y="40" width="120" height="30" as="geometry" />
        </mxCell>
      </root>
    </mxGraphModel>
  </diagram>
</mxfile>
